<svg id="visual" viewBox="0 0 2000 300" width="2000" height="300" xmlns="http://www.w3.org/2000/svg" xmlns:xlink="http://www.w3.org/1999/xlink" version="1.1"><path d="M0 89L25.7 81.5C51.3 74 102.7 59 154 58.3C205.3 57.7 256.7 71.3 308 75.8C359.3 80.3 410.7 75.7 461.8 71C513 66.3 564 61.7 615.2 63.2C666.3 64.7 717.7 72.3 769 79C820.3 85.7 871.7 91.3 923 84.8C974.3 78.3 1025.7 59.7 1077 52.3C1128.3 45 1179.7 49 1231 55.7C1282.3 62.3 1333.7 71.7 1384.8 78.8C1436 86 1487 91 1538.2 88C1589.3 85 1640.7 74 1692 68.8C1743.3 63.7 1794.7 64.3 1846 68.2C1897.3 72 1948.7 79 1974.3 82.5L2000 86L2000 301L1974.3 301C1948.7 301 1897.3 301 1846 301C1794.7 301 1743.3 301 1692 301C1640.7 301 1589.3 301 1538.2 301C1487 301 1436 301 1384.8 301C1333.7 301 1282.3 301 1231 301C1179.7 301 1128.3 301 1077 301C1025.7 301 974.3 301 923 301C871.7 301 820.3 301 769 301C717.7 301 666.3 301 615.2 301C564 301 513 301 461.8 301C410.7 301 359.3 301 308 301C256.7 301 205.3 301 154 301C102.7 301 51.3 301 25.7 301L0 301Z" fill="#c62368"></path><path d="M0 107L25.7 112C51.3 117 102.7 127 154 125.5C205.3 124 256.7 111 308 105.5C359.3 100 410.7 102 461.8 102.5C513 103 564 102 615.2 107.2C666.3 112.3 717.7 123.7 769 122.3C820.3 121 871.7 107 923 100.7C974.3 94.3 1025.7 95.7 1077 104.2C1128.3 112.7 1179.7 128.3 1231 129.7C1282.3 131 1333.7 118 1384.8 107.3C1436 96.7 1487 88.3 1538.2 87.5C1589.3 86.7 1640.7 93.3 1692 101.8C1743.3 110.3 1794.7 120.7 1846 126.8C1897.3 133 1948.7 135 1974.3 136L2000 137L2000 301L1974.3 301C1948.7 301 1897.3 301 1846 301C1794.7 301 1743.3 301 1692 301C1640.7 301 1589.3 301 1538.2 301C1487 301 1436 301 1384.8 301C1333.7 301 1282.3 301 1231 301C1179.7 301 1128.3 301 1077 301C1025.7 301 974.3 301 923 301C871.7 301 820.3 301 769 301C717.7 301 666.3 301 615.2 301C564 301 513 301 461.8 301C410.7 301 359.3 301 308 301C256.7 301 205.3 301 154 301C102.7 301 51.3 301 25.7 301L0 301Z" fill="#ce2f65"></path><path d="M0 169L25.7 165.5C51.3 162 102.7 155 154 146.8C205.3 138.7 256.7 129.3 308 132.7C359.3 136 410.7 152 461.8 157.8C513 163.7 564 159.3 615.2 152.2C666.3 145 717.7 135 769 137.2C820.3 139.3 871.7 153.7 923 152.8C974.3 152 1025.7 136 1077 137.5C1128.3 139 1179.7 158 1231 166.5C1282.3 175 1333.7 173 1384.8 166.7C1436 160.3 1487 149.7 1538.2 148.7C1589.3 147.7 1640.7 156.3 1692 161.7C1743.3 167 1794.7 169 1846 168.2C1897.3 167.3 1948.7 163.7 1974.3 161.8L2000 160L2000 301L1974.3 301C1948.7 301 1897.3 301 1846 301C1794.7 301 1743.3 301 1692 301C1640.7 301 1589.3 301 1538.2 301C1487 301 1436 301 1384.8 301C1333.7 301 1282.3 301 1231 301C1179.7 301 1128.3 301 1077 301C1025.7 301 974.3 301 923 301C871.7 301 820.3 301 769 301C717.7 301 666.3 301 615.2 301C564 301 513 301 461.8 301C410.7 301 359.3 301 308 301C256.7 301 205.3 301 154 301C102.7 301 51.3 301 25.7 301L0 301Z" fill="#d63b63"></path><path d="M0 175L25.7 173.8C51.3 172.7 102.7 170.3 154 175.7C205.3 181 256.7 194 308 198C359.3 202 410.7 197 461.8 192.5C513 188 564 184 615.2 182C666.3 180 717.7 180 769 180.3C820.3 180.7 871.7 181.3 923 183.2C974.3 185 1025.7 188 1077 190.2C1128.3 192.3 1179.7 193.7 1231 191.8C1282.3 190 1333.7 185 1384.8 187.3C1436 189.7 1487 199.3 1538.2 202.3C1589.3 205.3 1640.7 201.7 1692 195.3C1743.3 189 1794.7 180 1846 180.7C1897.3 181.3 1948.7 191.7 1974.3 196.8L2000 202L2000 301L1974.3 301C1948.7 301 1897.3 301 1846 301C1794.7 301 1743.3 301 1692 301C1640.7 301 1589.3 301 1538.2 301C1487 301 1436 301 1384.8 301C1333.7 301 1282.3 301 1231 301C1179.7 301 1128.3 301 1077 301C1025.7 301 974.3 301 923 301C871.7 301 820.3 301 769 301C717.7 301 666.3 301 615.2 301C564 301 513 301 461.8 301C410.7 301 359.3 301 308 301C256.7 301 205.3 301 154 301C102.7 301 51.3 301 25.7 301L0 301Z" fill="#dc4761"></path><path d="M0 243L25.7 236.8C51.3 230.7 102.7 218.3 154 216.8C205.3 215.3 256.7 224.7 308 224.7C359.3 224.7 410.7 215.3 461.8 210.2C513 205 564 204 615.2 206.3C666.3 208.7 717.7 214.3 769 220.5C820.3 226.7 871.7 233.3 923 230.7C974.3 228 1025.7 216 1077 212.8C1128.3 209.7 1179.7 215.3 1231 221C1282.3 226.7 1333.7 232.3 1384.8 234.7C1436 237 1487 236 1538.2 236.5C1589.3 237 1640.7 239 1692 234.3C1743.3 229.7 1794.7 218.3 1846 213C1897.3 207.7 1948.7 208.3 1974.3 208.7L2000 209L2000 301L1974.3 301C1948.7 301 1897.3 301 1846 301C1794.7 301 1743.3 301 1692 301C1640.7 301 1589.3 301 1538.2 301C1487 301 1436 301 1384.8 301C1333.7 301 1282.3 301 1231 301C1179.7 301 1128.3 301 1077 301C1025.7 301 974.3 301 923 301C871.7 301 820.3 301 769 301C717.7 301 666.3 301 615.2 301C564 301 513 301 461.8 301C410.7 301 359.3 301 308 301C256.7 301 205.3 301 154 301C102.7 301 51.3 301 25.7 301L0 301Z" fill="#e2525f"></path><path d="M0 244L25.7 246.3C51.3 248.7 102.7 253.3 154 252.2C205.3 251 256.7 244 308 244.2C359.3 244.3 410.7 251.7 461.8 258.3C513 265 564 271 615.2 272C666.3 273 717.7 269 769 266C820.3 263 871.7 261 923 258.5C974.3 256 1025.7 253 1077 253.5C1128.3 254 1179.7 258 1231 258.3C1282.3 258.7 1333.7 255.3 1384.8 254.8C1436 254.3 1487 256.7 1538.2 259.2C1589.3 261.7 1640.7 264.3 1692 260.3C1743.3 256.3 1794.7 245.7 1846 243.8C1897.3 242 1948.7 249 1974.3 252.5L2000 256L2000 301L1974.3 301C1948.7 301 1897.3 301 1846 301C1794.7 301 1743.3 301 1692 301C1640.7 301 1589.3 301 1538.2 301C1487 301 1436 301 1384.8 301C1333.7 301 1282.3 301 1231 301C1179.7 301 1128.3 301 1077 301C1025.7 301 974.3 301 923 301C871.7 301 820.3 301 769 301C717.7 301 666.3 301 615.2 301C564 301 513 301 461.8 301C410.7 301 359.3 301 308 301C256.7 301 205.3 301 154 301C102.7 301 51.3 301 25.7 301L0 301Z" fill="#e85d5e"></path></svg>