<?xml version="1.0" encoding="utf-8"?>
<svg xmlns="http://www.w3.org/2000/svg" viewBox="-1547.4231 79.086 3998.9648 252.6158" width="3998.9648px" height="252.6158px"><g id="object-0"><g id="visual" transform="matrix(1, 0, 0, 1, -800.643127, -33.360107)"><path d="M -746.78 153.045 L -721.09 145.545 C -695.49 138.045 -644.09 123.045 -592.78 122.345 C -541.49 121.745 -490.08 135.345 -438.79 139.845 C -387.49 144.345 -336.08 139.745 -284.99 135.045 C -233.78 130.345 -182.78 125.745 -131.59 127.245 C -80.485 128.745 -29.085 136.345 22.215 143.045 C 73.515 149.745 124.915 155.345 176.215 148.845 C 227.515 142.345 278.915 123.745 330.215 116.345 C 381.516 109.045 432.915 113.045 484.215 119.745 C 535.516 126.345 586.915 135.745 638.016 142.845 C 689.215 150.045 740.215 155.045 791.415 152.045 C 842.516 149.045 893.915 138.045 945.215 132.845 C 996.516 127.745 1047.91 128.345 1099.21 132.245 C 1150.52 136.045 1201.91 143.045 1227.52 146.545 L 1253.21 150.045 L 1253.21 365.045 L 1227.52 365.045 C 1201.91 365.045 1150.52 365.045 1099.21 365.045 C 1047.91 365.045 996.516 365.045 945.215 365.045 C 893.915 365.045 842.516 365.045 791.415 365.045 C 740.215 365.045 689.215 365.045 638.016 365.045 C 586.915 365.045 535.516 365.045 484.215 365.045 C 432.915 365.045 381.516 365.045 330.215 365.045 C 278.915 365.045 227.515 365.045 176.215 365.045 C 124.915 365.045 73.515 365.045 22.215 365.045 C -29.085 365.045 -80.485 365.045 -131.59 365.045 C -182.78 365.045 -233.78 365.045 -284.99 365.045 C -336.08 365.045 -387.49 365.045 -438.79 365.045 C -490.08 365.045 -541.49 365.045 -592.78 365.045 C -644.09 365.045 -695.49 365.045 -721.09 365.045 L -746.78 365.045 L -746.78 153.045 Z" fill="#c62368" style="stroke-width: 1px;"/><path d="M -746.78 171.045 L -721.09 176.045 C -695.49 181.045 -644.09 191.045 -592.78 189.545 C -541.49 188.045 -490.08 175.045 -438.79 169.545 C -387.49 164.045 -336.08 166.045 -284.99 166.545 C -233.78 167.045 -182.78 166.045 -131.59 171.245 C -80.485 176.345 -29.085 187.745 22.215 186.345 C 73.515 185.045 124.915 171.045 176.215 164.745 C 227.515 158.345 278.915 159.745 330.215 168.245 C 381.516 176.745 432.915 192.345 484.215 193.745 C 535.516 195.045 586.915 182.045 638.016 171.345 C 689.215 160.745 740.215 152.345 791.415 151.545 C 842.516 150.745 893.915 157.345 945.215 165.845 C 996.516 174.345 1047.91 184.745 1099.21 190.845 C 1150.52 197.045 1201.91 199.045 1227.52 200.045 L 1253.21 201.045 L 1253.21 365.045 L 1227.52 365.045 C 1201.91 365.045 1150.52 365.045 1099.21 365.045 C 1047.91 365.045 996.516 365.045 945.215 365.045 C 893.915 365.045 842.516 365.045 791.415 365.045 C 740.215 365.045 689.215 365.045 638.016 365.045 C 586.915 365.045 535.516 365.045 484.215 365.045 C 432.915 365.045 381.516 365.045 330.215 365.045 C 278.915 365.045 227.515 365.045 176.215 365.045 C 124.915 365.045 73.515 365.045 22.215 365.045 C -29.085 365.045 -80.485 365.045 -131.59 365.045 C -182.78 365.045 -233.78 365.045 -284.99 365.045 C -336.08 365.045 -387.49 365.045 -438.79 365.045 C -490.08 365.045 -541.49 365.045 -592.78 365.045 C -644.09 365.045 -695.49 365.045 -721.09 365.045 L -746.78 365.045 L -746.78 171.045 Z" fill="#ce2f65" style="stroke-width: 1px;"/><path d="M -746.78 233.045 L -721.09 229.545 C -695.49 226.045 -644.09 219.045 -592.78 210.845 C -541.49 202.745 -490.08 193.345 -438.79 196.745 C -387.49 200.045 -336.08 216.045 -284.99 221.845 C -233.78 227.745 -182.78 223.345 -131.59 216.245 C -80.485 209.045 -29.085 199.045 22.215 201.245 C 73.515 203.345 124.915 217.745 176.215 216.845 C 227.515 216.045 278.915 200.045 330.215 201.545 C 381.516 203.045 432.915 222.045 484.215 230.545 C 535.516 239.045 586.915 237.045 638.016 230.745 C 689.215 224.345 740.215 213.745 791.415 212.745 C 842.516 211.745 893.915 220.345 945.215 225.745 C 996.516 231.045 1047.91 233.045 1099.21 232.245 C 1150.52 231.345 1201.91 227.745 1227.52 225.845 L 1253.21 224.045 L 1253.21 365.045 L 1227.52 365.045 C 1201.91 365.045 1150.52 365.045 1099.21 365.045 C 1047.91 365.045 996.516 365.045 945.215 365.045 C 893.915 365.045 842.516 365.045 791.415 365.045 C 740.215 365.045 689.215 365.045 638.016 365.045 C 586.915 365.045 535.516 365.045 484.215 365.045 C 432.915 365.045 381.516 365.045 330.215 365.045 C 278.915 365.045 227.515 365.045 176.215 365.045 C 124.915 365.045 73.515 365.045 22.215 365.045 C -29.085 365.045 -80.485 365.045 -131.59 365.045 C -182.78 365.045 -233.78 365.045 -284.99 365.045 C -336.08 365.045 -387.49 365.045 -438.79 365.045 C -490.08 365.045 -541.49 365.045 -592.78 365.045 C -644.09 365.045 -695.49 365.045 -721.09 365.045 L -746.78 365.045 L -746.78 233.045 Z" fill="#d63b63" style="stroke-width: 1px;"/><path d="M -746.78 239.045 L -721.09 237.845 C -695.49 236.745 -644.09 234.345 -592.78 239.745 C -541.49 245.045 -490.08 258.045 -438.79 262.045 C -387.49 266.045 -336.08 261.045 -284.99 256.545 C -233.78 252.045 -182.78 248.045 -131.59 246.045 C -80.485 244.045 -29.085 244.045 22.215 244.345 C 73.515 244.745 124.915 245.345 176.215 247.245 C 227.515 249.045 278.915 252.045 330.215 254.245 C 381.516 256.345 432.915 257.745 484.215 255.845 C 535.516 254.045 586.915 249.045 638.016 251.345 C 689.215 253.745 740.215 263.345 791.415 266.345 C 842.516 269.345 893.915 265.745 945.215 259.345 C 996.516 253.045 1047.91 244.045 1099.21 244.745 C 1150.52 245.345 1201.91 255.745 1227.52 260.845 L 1253.21 266.045 L 1253.21 365.045 L 1227.52 365.045 C 1201.91 365.045 1150.52 365.045 1099.21 365.045 C 1047.91 365.045 996.516 365.045 945.215 365.045 C 893.915 365.045 842.516 365.045 791.415 365.045 C 740.215 365.045 689.215 365.045 638.016 365.045 C 586.915 365.045 535.516 365.045 484.215 365.045 C 432.915 365.045 381.516 365.045 330.215 365.045 C 278.915 365.045 227.515 365.045 176.215 365.045 C 124.915 365.045 73.515 365.045 22.215 365.045 C -29.085 365.045 -80.485 365.045 -131.59 365.045 C -182.78 365.045 -233.78 365.045 -284.99 365.045 C -336.08 365.045 -387.49 365.045 -438.79 365.045 C -490.08 365.045 -541.49 365.045 -592.78 365.045 C -644.09 365.045 -695.49 365.045 -721.09 365.045 L -746.78 365.045 L -746.78 239.045 Z" fill="#dc4761" style="stroke-width: 1px;"/><path d="M -746.78 307.045 L -721.09 300.845 C -695.49 294.745 -644.09 282.345 -592.78 280.845 C -541.49 279.345 -490.08 288.745 -438.79 288.745 C -387.49 288.745 -336.08 279.345 -284.99 274.245 C -233.78 269.045 -182.78 268.045 -131.59 270.345 C -80.485 272.745 -29.085 278.345 22.215 284.545 C 73.515 290.745 124.915 297.345 176.215 294.745 C 227.515 292.045 278.915 280.045 330.215 276.845 C 381.516 273.745 432.915 279.345 484.215 285.045 C 535.516 290.745 586.915 296.345 638.016 298.745 C 689.215 301.045 740.215 300.045 791.415 300.545 C 842.516 301.045 893.915 303.045 945.215 298.345 C 996.516 293.745 1047.91 282.345 1099.21 277.045 C 1150.52 271.745 1201.91 272.345 1227.52 272.745 L 1253.21 273.045 L 1253.21 365.045 L 1227.52 365.045 C 1201.91 365.045 1150.52 365.045 1099.21 365.045 C 1047.91 365.045 996.516 365.045 945.215 365.045 C 893.915 365.045 842.516 365.045 791.415 365.045 C 740.215 365.045 689.215 365.045 638.016 365.045 C 586.915 365.045 535.516 365.045 484.215 365.045 C 432.915 365.045 381.516 365.045 330.215 365.045 C 278.915 365.045 227.515 365.045 176.215 365.045 C 124.915 365.045 73.515 365.045 22.215 365.045 C -29.085 365.045 -80.485 365.045 -131.59 365.045 C -182.78 365.045 -233.78 365.045 -284.99 365.045 C -336.08 365.045 -387.49 365.045 -438.79 365.045 C -490.08 365.045 -541.49 365.045 -592.78 365.045 C -644.09 365.045 -695.49 365.045 -721.09 365.045 L -746.78 365.045 L -746.78 307.045 Z" fill="#e2525f" style="stroke-width: 1px;"/><path d="M -746.78 308.045 L -721.09 310.345 C -695.49 312.745 -644.09 317.345 -592.78 316.245 C -541.49 315.045 -490.08 308.045 -438.79 308.245 C -387.49 308.345 -336.08 315.745 -284.99 322.345 C -233.78 329.045 -182.78 335.045 -131.59 336.045 C -80.485 337.045 -29.085 333.045 22.215 330.045 C 73.515 327.045 124.915 325.045 176.215 322.545 C 227.515 320.045 278.915 317.045 330.215 317.545 C 381.516 318.045 432.915 322.045 484.215 322.345 C 535.516 322.745 586.915 319.345 638.016 318.845 C 689.215 318.345 740.215 320.745 791.415 323.245 C 842.516 325.745 893.915 328.345 945.215 324.345 C 996.516 320.345 1047.91 309.745 1099.21 307.845 C 1150.52 306.045 1201.91 313.045 1227.52 316.545 L 1253.21 320.045 L 1253.21 365.045 L 1227.52 365.045 C 1201.91 365.045 1150.52 365.045 1099.21 365.045 C 1047.91 365.045 996.516 365.045 945.215 365.045 C 893.915 365.045 842.516 365.045 791.415 365.045 C 740.215 365.045 689.215 365.045 638.016 365.045 C 586.915 365.045 535.516 365.045 484.215 365.045 C 432.915 365.045 381.516 365.045 330.215 365.045 C 278.915 365.045 227.515 365.045 176.215 365.045 C 124.915 365.045 73.515 365.045 22.215 365.045 C -29.085 365.045 -80.485 365.045 -131.59 365.045 C -182.78 365.045 -233.78 365.045 -284.99 365.045 C -336.08 365.045 -387.49 365.045 -438.79 365.045 C -490.08 365.045 -541.49 365.045 -592.78 365.045 C -644.09 365.045 -695.49 365.045 -721.09 365.045 L -746.78 365.045 L -746.78 308.045 Z" fill="#e85d5e" style="stroke-width: 1px;"/></g><g id="group-1" transform="matrix(-1, 0, 0, 1, 1704.761719, -33.34325)" style=""><path d="M -746.78 153.045 L -721.09 145.545 C -695.49 138.045 -644.09 123.045 -592.78 122.345 C -541.49 121.745 -490.08 135.345 -438.79 139.845 C -387.49 144.345 -336.08 139.745 -284.99 135.045 C -233.78 130.345 -182.78 125.745 -131.59 127.245 C -80.485 128.745 -29.085 136.345 22.215 143.045 C 73.515 149.745 124.915 155.345 176.215 148.845 C 227.515 142.345 278.915 123.745 330.215 116.345 C 381.516 109.045 432.915 113.045 484.215 119.745 C 535.516 126.345 586.915 135.745 638.016 142.845 C 689.215 150.045 740.215 155.045 791.415 152.045 C 842.516 149.045 893.915 138.045 945.215 132.845 C 996.516 127.745 1047.91 128.345 1099.21 132.245 C 1150.52 136.045 1201.91 143.045 1227.52 146.545 L 1253.21 150.045 L 1253.21 365.045 L 1227.52 365.045 C 1201.91 365.045 1150.52 365.045 1099.21 365.045 C 1047.91 365.045 996.516 365.045 945.215 365.045 C 893.915 365.045 842.516 365.045 791.415 365.045 C 740.215 365.045 689.215 365.045 638.016 365.045 C 586.915 365.045 535.516 365.045 484.215 365.045 C 432.915 365.045 381.516 365.045 330.215 365.045 C 278.915 365.045 227.515 365.045 176.215 365.045 C 124.915 365.045 73.515 365.045 22.215 365.045 C -29.085 365.045 -80.485 365.045 -131.59 365.045 C -182.78 365.045 -233.78 365.045 -284.99 365.045 C -336.08 365.045 -387.49 365.045 -438.79 365.045 C -490.08 365.045 -541.49 365.045 -592.78 365.045 C -644.09 365.045 -695.49 365.045 -721.09 365.045 L -746.78 365.045 L -746.78 153.045 Z" fill="#c62368" style="stroke-width: 1px;"/><path d="M -746.78 171.045 L -721.09 176.045 C -695.49 181.045 -644.09 191.045 -592.78 189.545 C -541.49 188.045 -490.08 175.045 -438.79 169.545 C -387.49 164.045 -336.08 166.045 -284.99 166.545 C -233.78 167.045 -182.78 166.045 -131.59 171.245 C -80.485 176.345 -29.085 187.745 22.215 186.345 C 73.515 185.045 124.915 171.045 176.215 164.745 C 227.515 158.345 278.915 159.745 330.215 168.245 C 381.516 176.745 432.915 192.345 484.215 193.745 C 535.516 195.045 586.915 182.045 638.016 171.345 C 689.215 160.745 740.215 152.345 791.415 151.545 C 842.516 150.745 893.915 157.345 945.215 165.845 C 996.516 174.345 1047.91 184.745 1099.21 190.845 C 1150.52 197.045 1201.91 199.045 1227.52 200.045 L 1253.21 201.045 L 1253.21 365.045 L 1227.52 365.045 C 1201.91 365.045 1150.52 365.045 1099.21 365.045 C 1047.91 365.045 996.516 365.045 945.215 365.045 C 893.915 365.045 842.516 365.045 791.415 365.045 C 740.215 365.045 689.215 365.045 638.016 365.045 C 586.915 365.045 535.516 365.045 484.215 365.045 C 432.915 365.045 381.516 365.045 330.215 365.045 C 278.915 365.045 227.515 365.045 176.215 365.045 C 124.915 365.045 73.515 365.045 22.215 365.045 C -29.085 365.045 -80.485 365.045 -131.59 365.045 C -182.78 365.045 -233.78 365.045 -284.99 365.045 C -336.08 365.045 -387.49 365.045 -438.79 365.045 C -490.08 365.045 -541.49 365.045 -592.78 365.045 C -644.09 365.045 -695.49 365.045 -721.09 365.045 L -746.78 365.045 L -746.78 171.045 Z" fill="#ce2f65" style="stroke-width: 1px;"/><path d="M -746.78 233.045 L -721.09 229.545 C -695.49 226.045 -644.09 219.045 -592.78 210.845 C -541.49 202.745 -490.08 193.345 -438.79 196.745 C -387.49 200.045 -336.08 216.045 -284.99 221.845 C -233.78 227.745 -182.78 223.345 -131.59 216.245 C -80.485 209.045 -29.085 199.045 22.215 201.245 C 73.515 203.345 124.915 217.745 176.215 216.845 C 227.515 216.045 278.915 200.045 330.215 201.545 C 381.516 203.045 432.915 222.045 484.215 230.545 C 535.516 239.045 586.915 237.045 638.016 230.745 C 689.215 224.345 740.215 213.745 791.415 212.745 C 842.516 211.745 893.915 220.345 945.215 225.745 C 996.516 231.045 1047.91 233.045 1099.21 232.245 C 1150.52 231.345 1201.91 227.745 1227.52 225.845 L 1253.21 224.045 L 1253.21 365.045 L 1227.52 365.045 C 1201.91 365.045 1150.52 365.045 1099.21 365.045 C 1047.91 365.045 996.516 365.045 945.215 365.045 C 893.915 365.045 842.516 365.045 791.415 365.045 C 740.215 365.045 689.215 365.045 638.016 365.045 C 586.915 365.045 535.516 365.045 484.215 365.045 C 432.915 365.045 381.516 365.045 330.215 365.045 C 278.915 365.045 227.515 365.045 176.215 365.045 C 124.915 365.045 73.515 365.045 22.215 365.045 C -29.085 365.045 -80.485 365.045 -131.59 365.045 C -182.78 365.045 -233.78 365.045 -284.99 365.045 C -336.08 365.045 -387.49 365.045 -438.79 365.045 C -490.08 365.045 -541.49 365.045 -592.78 365.045 C -644.09 365.045 -695.49 365.045 -721.09 365.045 L -746.78 365.045 L -746.78 233.045 Z" fill="#d63b63" style="stroke-width: 1px;"/><path d="M -746.78 239.045 L -721.09 237.845 C -695.49 236.745 -644.09 234.345 -592.78 239.745 C -541.49 245.045 -490.08 258.045 -438.79 262.045 C -387.49 266.045 -336.08 261.045 -284.99 256.545 C -233.78 252.045 -182.78 248.045 -131.59 246.045 C -80.485 244.045 -29.085 244.045 22.215 244.345 C 73.515 244.745 124.915 245.345 176.215 247.245 C 227.515 249.045 278.915 252.045 330.215 254.245 C 381.516 256.345 432.915 257.745 484.215 255.845 C 535.516 254.045 586.915 249.045 638.016 251.345 C 689.215 253.745 740.215 263.345 791.415 266.345 C 842.516 269.345 893.915 265.745 945.215 259.345 C 996.516 253.045 1047.91 244.045 1099.21 244.745 C 1150.52 245.345 1201.91 255.745 1227.52 260.845 L 1253.21 266.045 L 1253.21 365.045 L 1227.52 365.045 C 1201.91 365.045 1150.52 365.045 1099.21 365.045 C 1047.91 365.045 996.516 365.045 945.215 365.045 C 893.915 365.045 842.516 365.045 791.415 365.045 C 740.215 365.045 689.215 365.045 638.016 365.045 C 586.915 365.045 535.516 365.045 484.215 365.045 C 432.915 365.045 381.516 365.045 330.215 365.045 C 278.915 365.045 227.515 365.045 176.215 365.045 C 124.915 365.045 73.515 365.045 22.215 365.045 C -29.085 365.045 -80.485 365.045 -131.59 365.045 C -182.78 365.045 -233.78 365.045 -284.99 365.045 C -336.08 365.045 -387.49 365.045 -438.79 365.045 C -490.08 365.045 -541.49 365.045 -592.78 365.045 C -644.09 365.045 -695.49 365.045 -721.09 365.045 L -746.78 365.045 L -746.78 239.045 Z" fill="#dc4761" style="stroke-width: 1px;"/><path d="M -746.78 307.045 L -721.09 300.845 C -695.49 294.745 -644.09 282.345 -592.78 280.845 C -541.49 279.345 -490.08 288.745 -438.79 288.745 C -387.49 288.745 -336.08 279.345 -284.99 274.245 C -233.78 269.045 -182.78 268.045 -131.59 270.345 C -80.485 272.745 -29.085 278.345 22.215 284.545 C 73.515 290.745 124.915 297.345 176.215 294.745 C 227.515 292.045 278.915 280.045 330.215 276.845 C 381.516 273.745 432.915 279.345 484.215 285.045 C 535.516 290.745 586.915 296.345 638.016 298.745 C 689.215 301.045 740.215 300.045 791.415 300.545 C 842.516 301.045 893.915 303.045 945.215 298.345 C 996.516 293.745 1047.91 282.345 1099.21 277.045 C 1150.52 271.745 1201.91 272.345 1227.52 272.745 L 1253.21 273.045 L 1253.21 365.045 L 1227.52 365.045 C 1201.91 365.045 1150.52 365.045 1099.21 365.045 C 1047.91 365.045 996.516 365.045 945.215 365.045 C 893.915 365.045 842.516 365.045 791.415 365.045 C 740.215 365.045 689.215 365.045 638.016 365.045 C 586.915 365.045 535.516 365.045 484.215 365.045 C 432.915 365.045 381.516 365.045 330.215 365.045 C 278.915 365.045 227.515 365.045 176.215 365.045 C 124.915 365.045 73.515 365.045 22.215 365.045 C -29.085 365.045 -80.485 365.045 -131.59 365.045 C -182.78 365.045 -233.78 365.045 -284.99 365.045 C -336.08 365.045 -387.49 365.045 -438.79 365.045 C -490.08 365.045 -541.49 365.045 -592.78 365.045 C -644.09 365.045 -695.49 365.045 -721.09 365.045 L -746.78 365.045 L -746.78 307.045 Z" fill="#e2525f" style="stroke-width: 1px;"/><path d="M -746.78 308.045 L -721.09 310.345 C -695.49 312.745 -644.09 317.345 -592.78 316.245 C -541.49 315.045 -490.08 308.045 -438.79 308.245 C -387.49 308.345 -336.08 315.745 -284.99 322.345 C -233.78 329.045 -182.78 335.045 -131.59 336.045 C -80.485 337.045 -29.085 333.045 22.215 330.045 C 73.515 327.045 124.915 325.045 176.215 322.545 C 227.515 320.045 278.915 317.045 330.215 317.545 C 381.516 318.045 432.915 322.045 484.215 322.345 C 535.516 322.745 586.915 319.345 638.016 318.845 C 689.215 318.345 740.215 320.745 791.415 323.245 C 842.516 325.745 893.915 328.345 945.215 324.345 C 996.516 320.345 1047.91 309.745 1099.21 307.845 C 1150.52 306.045 1201.91 313.045 1227.52 316.545 L 1253.21 320.045 L 1253.21 365.045 L 1227.52 365.045 C 1201.91 365.045 1150.52 365.045 1099.21 365.045 C 1047.91 365.045 996.516 365.045 945.215 365.045 C 893.915 365.045 842.516 365.045 791.415 365.045 C 740.215 365.045 689.215 365.045 638.016 365.045 C 586.915 365.045 535.516 365.045 484.215 365.045 C 432.915 365.045 381.516 365.045 330.215 365.045 C 278.915 365.045 227.515 365.045 176.215 365.045 C 124.915 365.045 73.515 365.045 22.215 365.045 C -29.085 365.045 -80.485 365.045 -131.59 365.045 C -182.78 365.045 -233.78 365.045 -284.99 365.045 C -336.08 365.045 -387.49 365.045 -438.79 365.045 C -490.08 365.045 -541.49 365.045 -592.78 365.045 C -644.09 365.045 -695.49 365.045 -721.09 365.045 L -746.78 365.045 L -746.78 308.045 Z" fill="#e85d5e" style="stroke-width: 1px;"/></g></g></svg>